<svg width="671" height="579" viewBox="0 0 671 579" fill="none" xmlns="http://www.w3.org/2000/svg">
<g clip-path="url(#clip0_2_34245)">
<path fill-rule="evenodd" clip-rule="evenodd" d="M350.245 579C526.907 579 670.999 566.103 670.999 550.294C670.999 534.485 526.907 521.604 350.245 521.604C173.583 521.604 29.4902 534.501 29.4902 550.294C29.4902 566.087 173.583 579 350.245 579Z" fill="#11553E"/>
<path fill-rule="evenodd" clip-rule="evenodd" d="M145.209 248.987L125.986 422.555C125.986 422.555 138.002 427.365 139.8 421.357C141.597 415.35 150.917 250.784 150.917 250.784L145.209 248.987Z" fill="#96C042"/>
<path fill-rule="evenodd" clip-rule="evenodd" d="M136.753 221.129C132.027 211.411 134.856 190.276 159.387 198.264C158.272 204.488 157.307 213.041 159.254 217.967C161.734 224.291 163.881 211.66 169.839 202.807C170.338 203.073 170.854 203.34 171.37 203.639C196.783 217.701 209.848 254.478 214.192 286.429C208.799 288.976 203.64 292.47 205.504 296.048C206.969 298.861 211.113 299.676 215.523 299.659C216.022 307.381 215.972 314.52 215.44 320.627C215.44 320.627 166.66 319.396 129.697 305.068C131.694 298.994 134.04 289.808 129.364 291.239C125.12 292.537 121.891 297.346 120.027 300.874C104.616 293.336 92.7 282.951 89.7543 268.623C79.6355 219.515 136.753 221.112 136.753 221.112V221.129ZM141.08 287.794C140.032 296.198 152.647 283.434 148.436 280.289C144.226 277.127 141.08 287.794 141.08 287.794Z" fill="#96C042"/>
<path fill-rule="evenodd" clip-rule="evenodd" d="M77.8702 218.982C77.8702 218.982 6.57295 175.931 4.15976 228.95C3.97669 232.894 4.10983 236.872 4.47597 240.882C14.7612 237.188 30.6216 232.628 33.2678 238.419C36.2968 245.026 17.4073 256.059 8.22058 260.935C15.2438 286.596 29.7562 310.959 40.291 326.402C42.5544 324.588 44.9676 323.123 46.5154 323.473C48.629 323.939 46.4988 328.266 44.0523 331.794C49.1616 338.949 52.6566 343.143 52.6566 343.143C52.6566 343.143 89.104 332.293 113.436 304.202C106.712 298.86 95.2951 288.659 97.9413 282.985C100.621 277.21 115.15 286.113 122.805 291.355C130.045 279.373 134.822 265.029 134.788 247.971C134.788 244.81 134.655 241.864 134.439 239.135C129.379 240.3 124.004 240.866 123.055 238.336C121.724 234.742 128.58 231.28 133.007 229.267C123.371 185.567 77.8369 218.966 77.8369 218.966L77.8702 218.982ZM31.3539 258.289C31.3539 258.289 39.6753 251.483 42.8707 254.545C46.0661 257.607 27.576 265.877 31.3539 258.289Z" fill="white"/>
<path fill-rule="evenodd" clip-rule="evenodd" d="M87.8572 235.773L108.278 427.964H96.2617L81.25 235.174L87.8572 235.773Z" fill="#AEC755"/>
<path fill-rule="evenodd" clip-rule="evenodd" d="M73.2445 220.513C73.2445 220.513 0 177.046 0 230.581C0 234.559 0.299568 238.586 0.848777 242.63C10.9675 238.902 26.6117 234.309 29.5241 240.15C32.8527 246.823 14.4625 257.956 5.50873 262.882C13.6969 288.776 29.3078 313.388 40.5582 328.981C42.7384 327.151 45.0851 325.67 46.6495 326.019C48.7797 326.485 46.8492 330.862 44.5691 334.423C50.0113 341.645 53.6893 345.889 53.6893 345.889C53.6893 345.889 89.6375 334.939 112.704 306.565C105.748 301.174 93.8648 290.873 96.2447 285.148C98.6745 279.307 113.586 288.31 121.492 293.602C128.199 281.504 132.309 267.009 131.511 249.802C131.361 246.607 131.111 243.645 130.762 240.882C125.752 242.064 120.393 242.63 119.345 240.084C117.847 236.456 124.554 232.961 128.881 230.931C117.264 186.815 73.2445 220.53 73.2445 220.53V220.513ZM28.5089 260.203C28.5089 260.203 36.5141 253.33 39.8426 256.425C43.1711 259.521 25.0639 267.858 28.5089 260.203Z" fill="#BDD95B"/>
<path fill-rule="evenodd" clip-rule="evenodd" d="M127.649 238.819C126.651 238.552 125.919 238.053 125.586 237.271C124.87 235.54 126.035 233.843 127.899 232.312C127.566 218.666 120.893 204.155 89.3047 217.95C89.3047 217.95 122.94 202.041 125.636 249.785C125.636 249.785 127.034 244.992 127.633 238.819H127.649Z" fill="#D6EB86"/>
<path fill-rule="evenodd" clip-rule="evenodd" d="M1.94727 222.843C1.94727 222.843 9.53633 212.16 32.5532 208.615C32.5532 208.615 5.7418 201.975 1.94727 222.843Z" fill="#D6EB86"/>
<path fill-rule="evenodd" clip-rule="evenodd" d="M82.481 302.222C83.7958 302.388 85.3103 303.57 85.8762 304.868C86.442 306.166 85.8262 307.098 84.5281 306.948C83.2133 306.782 81.6988 305.6 81.133 304.302C80.5671 303.004 81.1663 302.072 82.481 302.222Z" fill="#D6EB86"/>
<path fill-rule="evenodd" clip-rule="evenodd" d="M75.7413 273.499C77.6053 272.417 81.3998 274.464 84.2125 278.092C87.0251 281.72 87.774 285.531 85.8934 286.612C84.0294 287.694 80.2349 285.647 77.4222 282.019C74.6096 278.392 73.8607 274.581 75.7413 273.499Z" fill="#D6EB86"/>
<path fill-rule="evenodd" clip-rule="evenodd" d="M43.7864 286.13C42.9044 285.614 41.107 286.596 39.7922 288.293C38.4774 290.007 38.1113 291.804 38.9933 292.32C39.8754 292.836 41.6728 291.854 42.9876 290.157C44.319 288.443 44.6685 286.646 43.7864 286.13Z" fill="#D6EB86"/>
<path fill-rule="evenodd" clip-rule="evenodd" d="M175.481 428.379L160.352 548.23H54.5547L39.6761 426.948C39.3766 424.552 40.0589 422.372 41.6733 420.575C43.2876 418.777 45.3679 417.862 47.7811 417.895L167.559 419.293C169.938 419.327 171.986 420.258 173.55 422.056C175.114 423.853 175.763 426 175.481 428.379Z" fill="#D6DAE6"/>
<path fill-rule="evenodd" clip-rule="evenodd" d="M67.8182 409.076C70.714 409.076 73.3935 409.874 75.4738 411.189C81.4485 405.415 92.7489 401.521 105.697 401.521C123.887 401.521 138.799 409.192 140.33 418.977L55.6523 417.979C56.0351 413.003 61.3441 409.076 67.8182 409.076ZM154.277 413.303C158.454 413.303 161.833 415.915 161.833 419.127V419.227L146.721 419.044C146.771 415.865 150.133 413.303 154.277 413.303Z" fill="#96C042"/>
<path fill-rule="evenodd" clip-rule="evenodd" d="M77.2221 402.602L78.6866 397.51C79.602 394.331 77.738 390.97 74.5592 390.071L69.4666 388.607C68.9007 388.44 68.3016 388.773 68.1352 389.356L66.6706 394.448C65.7553 397.626 67.6192 400.988 70.798 401.887L75.8906 403.351C76.4565 403.517 77.0556 403.185 77.2221 402.602Z" fill="#96C042"/>
<path fill-rule="evenodd" clip-rule="evenodd" d="M486.632 294.068H434.874V287.877H448.121V261.751H410.559V253.114L448.121 252.864V240.6H452.199V252.848L469.291 252.731V243.612H473.368V252.698L510.931 252.448V261.734H473.368V287.861H486.616V294.051L486.632 294.068ZM452.199 261.767V287.894H469.291V261.767H452.199Z" fill="#3A3C6C"/>
<path fill-rule="evenodd" clip-rule="evenodd" d="M446.772 61.4399H488.728C495.385 61.4399 500.844 66.8816 500.844 73.5548C500.844 80.2113 495.402 85.6696 488.728 85.6696H446.772C440.115 85.6696 434.656 80.2279 434.656 73.5548C434.656 66.8983 440.098 61.4399 446.772 61.4399Z" fill="#232446"/>
<path d="M604.628 72.5229H316.86C312.448 72.5229 308.871 76.0992 308.871 80.5108V250.069C308.871 254.48 312.448 258.057 316.86 258.057H604.628C609.04 258.057 612.617 254.48 612.617 250.069V80.5108C612.617 76.0992 609.04 72.5229 604.628 72.5229Z" fill="white"/>
<path fill-rule="evenodd" clip-rule="evenodd" d="M429.514 72.5229H495.702V72.5729C496.734 79.7619 491.674 85.6529 484.484 85.6529H444.475C437.286 85.6529 430.546 79.7619 429.53 72.5729V72.5229H429.514Z" fill="#E4E4E4"/>
<path fill-rule="evenodd" clip-rule="evenodd" d="M439.766 59.4927H481.723C488.38 59.4927 493.838 64.9344 493.838 71.6075C493.838 78.264 488.396 83.7224 481.723 83.7224H439.766C433.109 83.7224 427.65 78.2807 427.65 71.6075C427.65 64.951 433.093 59.4927 439.766 59.4927Z" fill="#3A3C6C"/>
<path fill-rule="evenodd" clip-rule="evenodd" d="M440.498 78.6302C444.359 78.6302 447.521 75.485 447.521 71.6076C447.521 67.7302 444.359 64.585 440.498 64.585C436.637 64.585 433.475 67.7302 433.475 71.6076C433.475 75.485 436.62 78.6302 440.498 78.6302Z" fill="#232446"/>
<path fill-rule="evenodd" clip-rule="evenodd" d="M454.679 75.5849C456.876 75.5849 458.656 73.7876 458.656 71.6076C458.656 69.4276 456.859 67.6304 454.679 67.6304C452.499 67.6304 450.701 69.4276 450.701 71.6076C450.701 73.7876 452.499 75.5849 454.679 75.5849Z" fill="#232446"/>
<path fill-rule="evenodd" clip-rule="evenodd" d="M483.054 67.6139C484.186 67.6139 485.118 66.6819 485.118 65.5503C485.118 64.4187 484.186 63.4868 483.054 63.4868C481.922 63.4868 480.99 64.4187 480.99 65.5503C480.99 66.6819 481.922 67.6139 483.054 67.6139Z" fill="white"/>
<path fill-rule="evenodd" clip-rule="evenodd" d="M440.499 73.7377C441.681 73.7377 442.63 72.7725 442.63 71.6076C442.63 70.4427 441.664 69.4775 440.499 69.4775C439.334 69.4775 438.369 70.4427 438.369 71.6076C438.369 72.7725 439.334 73.7377 440.499 73.7377Z" fill="white"/>
<path d="M470.005 96.4697H414.602C413.435 96.4697 412.488 97.4159 412.488 98.5832V133.779C412.488 134.947 413.435 135.893 414.602 135.893H470.005C471.173 135.893 472.119 134.947 472.119 133.779V98.5832C472.119 97.4159 471.173 96.4697 470.005 96.4697Z" fill="#F8A300"/>
<path fill-rule="evenodd" clip-rule="evenodd" d="M451.864 118.869C451.864 118.869 451.365 126.374 451.432 131.916H440.414V124.893L451.864 118.869Z" fill="#DC8C8C"/>
<path fill-rule="evenodd" clip-rule="evenodd" d="M451.981 114.509L453.33 107.054C453.33 107.054 453.396 104.907 451 105.722C451 105.722 455.227 101.479 447.588 100.63C443.51 99.2822 437.286 98.8828 434.34 102.744C434.74 99.1491 429.747 100.247 427.6 103.792C427.816 102.427 428.432 101.03 429.63 99.7315C429.63 99.7315 424.205 102.411 426.468 107.436C426.318 111.78 428.698 115.341 437.852 115.774C440.947 115.923 451.199 118.969 451.998 114.509H451.981ZM451 105.722C451.865 103.775 450.883 102.244 449.019 101.246C451.049 101.945 452.73 103.243 451 105.722Z" fill="#3A3C6C"/>
<path fill-rule="evenodd" clip-rule="evenodd" d="M431.71 100.714C432.276 100.597 432.726 100.714 432.726 100.98C432.726 101.246 432.276 101.562 431.71 101.662C431.145 101.779 430.695 101.662 430.695 101.396C430.695 101.13 431.145 100.813 431.71 100.714Z" fill="#60629A"/>
<path fill-rule="evenodd" clip-rule="evenodd" d="M440.315 100.014C441.846 99.8646 443.094 100.014 443.094 100.364C443.094 100.713 441.846 101.113 440.315 101.262C438.783 101.412 437.535 101.262 437.535 100.913C437.535 100.564 438.783 100.164 440.315 100.014Z" fill="#60629A"/>
<path fill-rule="evenodd" clip-rule="evenodd" d="M431.527 111.314C431.527 111.314 430.412 126.624 438.251 130.368C438.251 130.368 450.334 130.734 451.083 119.535C456.142 119.002 454.328 111.181 450.7 114.892L449.435 111.48C449.435 111.48 439.233 113.111 431.527 111.314Z" fill="#DC8C8C"/>
<path fill-rule="evenodd" clip-rule="evenodd" d="M438.734 130.352C440.981 130.285 450.418 129.387 451.083 119.518C456.143 118.986 454.329 111.164 450.7 114.875L449.436 111.464C449.436 111.464 444.127 112.313 438.252 112.113C438.135 114.176 438.002 117.005 438.069 119.402C434.357 118.387 435.323 123.312 437.886 122.514L438.718 130.335L438.734 130.352Z" fill="#EBB39D"/>
<path fill-rule="evenodd" clip-rule="evenodd" d="M451.082 119.535C454.061 119.219 454.66 116.373 453.911 114.842C452.713 114.626 451.382 116.14 451.382 116.14C452.913 115.94 452.646 118.154 451.082 118.387V119.535Z" fill="#DC8C8C"/>
<path fill-rule="evenodd" clip-rule="evenodd" d="M450.7 114.892L449.435 111.48C449.435 111.48 439.233 113.111 431.527 111.314C431.527 111.314 439.849 114.742 448.819 112.379L450.7 114.892Z" fill="#DC8C8C"/>
<path fill-rule="evenodd" clip-rule="evenodd" d="M437.818 121.981C437.985 120.999 439.266 120.883 439.083 121.781C439.083 121.781 438.617 121.448 437.818 121.981Z" fill="#DC8C8C"/>
<path fill-rule="evenodd" clip-rule="evenodd" d="M430.645 114.692H435.887C435.887 114.692 436.786 114.143 436.32 113.228C436.32 113.228 436.137 113.71 435.92 113.86C435.92 113.86 435.82 113.128 434.655 112.878C434.655 112.878 431.993 112.612 430.661 114.692H430.645Z" fill="#3A3C6C"/>
<path fill-rule="evenodd" clip-rule="evenodd" d="M445.04 114.692H439.797C439.797 114.692 438.899 114.143 439.365 113.228C439.365 113.228 439.548 113.71 439.764 113.86C439.764 113.86 439.598 113.294 440.163 113.045C440.18 113.461 440.247 113.527 440.247 113.527C440.213 113.261 440.296 113.028 440.296 113.011C441.661 112.362 444.224 113.444 445.04 114.692ZM445.256 114.376C445.456 112.978 443.742 113.427 443.742 113.427C444.79 113.627 445.256 114.376 445.256 114.376Z" fill="#3A3C6C"/>
<path fill-rule="evenodd" clip-rule="evenodd" d="M433.391 113.993C434.306 113.993 435.122 114.359 435.721 114.958C436.32 115.557 436.686 116.373 436.686 117.288C436.686 118.203 436.32 119.019 435.721 119.618C435.122 120.217 434.306 120.583 433.391 120.583C432.476 120.583 431.66 120.217 431.061 119.618C430.462 119.019 430.096 118.203 430.096 117.288C430.096 116.373 430.462 115.557 431.061 114.958C431.66 114.359 432.476 113.993 433.391 113.993ZM435.604 115.075C435.039 114.509 434.256 114.16 433.391 114.16C432.526 114.16 431.743 114.509 431.177 115.075C430.612 115.641 430.262 116.423 430.262 117.288C430.262 118.153 430.612 118.936 431.177 119.501C431.743 120.067 432.526 120.417 433.391 120.417C434.256 120.417 435.039 120.067 435.604 119.501C436.17 118.936 436.52 118.153 436.52 117.288C436.52 116.423 436.17 115.641 435.604 115.075Z" fill="#232446"/>
<path fill-rule="evenodd" clip-rule="evenodd" d="M445.358 117.155L452.514 113.561C452.514 113.561 453.646 113.078 454.095 114.126L453.946 114.193C453.58 113.311 452.648 113.694 452.598 113.71L445.391 117.338C445.391 118.22 445.009 119.036 444.426 119.618C443.827 120.217 443.011 120.583 442.096 120.583C441.181 120.583 440.365 120.217 439.766 119.618C439.167 119.019 438.801 118.204 438.801 117.288C438.801 116.373 439.167 115.558 439.766 114.958C440.365 114.359 441.181 113.993 442.096 113.993C442.895 113.993 443.611 114.276 444.176 114.742C444.759 115.208 445.175 115.874 445.325 116.639C445.341 116.756 445.358 116.856 445.375 116.972C445.375 117.039 445.375 117.105 445.375 117.172L445.358 117.155ZM444.043 114.875C443.511 114.443 442.812 114.176 442.063 114.176C441.197 114.176 440.415 114.526 439.849 115.092C439.283 115.657 438.934 116.44 438.934 117.305C438.934 118.17 439.283 118.952 439.849 119.518C440.415 120.084 441.197 120.433 442.063 120.433C442.928 120.433 443.71 120.084 444.276 119.518C444.842 118.952 445.192 118.17 445.192 117.305C445.192 117.205 445.192 117.089 445.192 116.989C445.192 116.889 445.158 116.772 445.142 116.673C444.992 115.957 444.592 115.325 444.043 114.875Z" fill="#232446"/>
<path fill-rule="evenodd" clip-rule="evenodd" d="M437.27 124.277L442.579 123.479C442.745 123.445 442.912 123.512 443.012 123.645C443.112 123.778 443.145 123.945 443.095 124.111C442.096 126.89 438.734 127.389 436.97 125.043C436.87 124.91 436.837 124.743 436.904 124.577C436.97 124.411 437.103 124.311 437.27 124.294V124.277Z" fill="white"/>
<path fill-rule="evenodd" clip-rule="evenodd" d="M451.432 131.916C451.432 131.916 461.684 131.466 462.799 135.893H429.963C429.963 135.893 433.907 130.468 440.414 131.916H451.432Z" fill="#3A3C6C"/>
<path d="M537.375 96.4697H481.971C480.804 96.4697 479.857 97.4159 479.857 98.5832V133.779C479.857 134.947 480.804 135.893 481.971 135.893H537.375C538.542 135.893 539.488 134.947 539.488 133.779V98.5832C539.488 97.4159 538.542 96.4697 537.375 96.4697Z" fill="#6F89DB"/>
<path fill-rule="evenodd" clip-rule="evenodd" d="M519.351 103.526C525.043 107.52 525.575 128.271 517.337 132.132C517.337 132.132 505.637 128.005 497.799 132.681C490.127 124.344 495.469 108.402 498.398 104.574C506.436 100.447 510.98 100.148 517.088 103.443C518.153 104.008 518.402 102.893 519.351 103.509V103.526Z" fill="#3A3C6C"/>
<path fill-rule="evenodd" clip-rule="evenodd" d="M509.865 128.837L513.56 127.173L526.008 133.813L525.742 135.893H492.49L492.24 134.012L504.323 127.173L509.865 128.837Z" fill="#F1F2FF"/>
<path fill-rule="evenodd" clip-rule="evenodd" d="M509.865 128.837L513.56 127.173L515.973 128.454C515.324 131.483 512.428 133.779 508.95 133.779C505.472 133.779 502.609 131.533 501.943 128.521L504.34 127.156L509.882 128.82L509.865 128.837Z" fill="#EEC16E"/>
<path fill-rule="evenodd" clip-rule="evenodd" d="M504.322 122.713H513.559V127.173C513.559 129.636 511.545 131.633 509.099 131.633H508.799C506.336 131.633 504.339 129.619 504.339 127.173V122.713H504.322Z" fill="#D77F7F"/>
<path fill-rule="evenodd" clip-rule="evenodd" d="M518.385 114.359C519.949 111.38 522.495 102.327 517.07 102.827C516.87 102.194 515.988 99.7148 514.374 98.916L514.324 99.0325C515.705 99.7148 516.537 101.662 516.853 102.56C510.363 94.2231 490.258 99.7314 500.793 116.839L518.385 114.359ZM522.046 108.684C522.046 108.684 526.473 118.353 522.628 127.872L522.512 127.822C526.323 118.353 521.946 108.768 521.929 108.734L522.046 108.684Z" fill="#3A3C6C"/>
<path fill-rule="evenodd" clip-rule="evenodd" d="M500.612 108.069H517.271V112.179C518.969 111.863 520.334 112.961 520.334 114.659C520.334 116.356 518.969 117.987 517.271 118.303C516.639 122.996 513.793 126.541 508.95 126.607C504.09 126.674 500.978 123.129 500.629 118.303C498.931 117.987 497.566 116.356 497.566 114.659C497.566 112.961 498.931 111.863 500.629 112.179V108.069H500.612Z" fill="#EAAB9F"/>
<path fill-rule="evenodd" clip-rule="evenodd" d="M500.611 108.069H513.01C513.01 108.069 509.132 117.621 500.428 112.146C500.494 112.146 500.544 112.163 500.611 112.179V108.069ZM513.01 108.069C513.359 110.915 516.355 111.48 517.27 111.58V108.069H513.01Z" fill="#D77F7F"/>
<path fill-rule="evenodd" clip-rule="evenodd" d="M520.082 113.494C520.249 113.826 520.332 114.226 520.332 114.658C520.332 116.356 518.967 117.987 517.27 118.303V116.988C518.368 116.855 519.583 114.392 517.436 114.492C517.436 114.492 518.468 112.778 520.082 113.494Z" fill="#D77F7F"/>
<path fill-rule="evenodd" clip-rule="evenodd" d="M510.031 104.94L513.077 107.752L513.176 107.786V107.819C513.176 107.819 513.176 107.902 513.21 108.035L517.803 107.12V110.298C515.34 110.781 513.909 109.35 513.326 108.568C513.642 109.749 514.691 111.863 518.103 111.047V111.13C514.441 112.012 513.459 109.533 513.193 108.385C513.077 108.202 513.01 108.085 513.01 108.085H513.126C513.126 108.002 513.126 107.935 513.11 107.902C512.71 108.634 508.966 115.124 500.428 112.162L500.295 106.837L510.031 104.957V104.94Z" fill="#3A3C6C"/>
<path fill-rule="evenodd" clip-rule="evenodd" d="M497.798 113.494C497.632 113.826 497.549 114.226 497.549 114.658C497.549 116.356 498.914 117.987 500.611 118.303V116.988C499.513 116.855 498.298 114.392 500.445 114.492C500.445 114.492 499.413 112.778 497.798 113.494Z" fill="#D77F7F"/>
<path fill-rule="evenodd" clip-rule="evenodd" d="M495.502 135.893C494.869 134.795 493.838 134.029 492.223 134.029C491.158 134.029 490.309 134.728 489.627 135.893H495.502Z" fill="#F1F2FF"/>
<path fill-rule="evenodd" clip-rule="evenodd" d="M522.613 135.893C523.246 134.695 524.278 133.83 525.992 133.813C527.123 133.813 528.022 134.612 528.705 135.893H522.613Z" fill="#F1F2FF"/>
<path fill-rule="evenodd" clip-rule="evenodd" d="M511.246 113.078H515.24C514.574 112.379 510.663 111.297 511.246 113.078ZM511.046 112.445C511.046 112.445 511.013 112.811 511.196 113.061C511.196 113.061 510.697 112.811 511.046 112.445Z" fill="#3A3C6C"/>
<path fill-rule="evenodd" clip-rule="evenodd" d="M511.445 116.023C511.445 116.023 512.86 115.075 514.741 115.99C514.607 115.607 512.777 114.043 511.445 116.023Z" fill="#3A3C6C"/>
<path fill-rule="evenodd" clip-rule="evenodd" d="M506.752 116.023C506.752 116.023 505.338 115.075 503.457 115.99C503.59 115.607 505.421 114.043 506.752 116.023Z" fill="#3A3C6C"/>
<path fill-rule="evenodd" clip-rule="evenodd" d="M507.186 119.052C507.186 119.052 508.284 119.9 510.697 119.218C510.697 119.218 508.65 121.664 507.186 119.052Z" fill="#D77F7F"/>
<path fill-rule="evenodd" clip-rule="evenodd" d="M506.453 122.397C506.453 122.397 509.316 122.963 511.446 122.397C511.28 122.713 508.683 123.845 506.453 122.397Z" fill="#3A3C6C"/>
<path fill-rule="evenodd" clip-rule="evenodd" d="M506.803 113.078H502.809C503.474 112.379 507.385 111.297 506.803 113.078ZM507.003 112.445C507.003 112.445 507.036 112.811 506.853 113.061C506.853 113.061 507.352 112.811 507.003 112.445Z" fill="#3A3C6C"/>
<path fill-rule="evenodd" clip-rule="evenodd" d="M505.82 99.5316C508.1 99.2321 509.93 99.5316 509.93 100.181C509.93 100.83 508.083 101.612 505.82 101.911C503.54 102.211 501.709 101.911 501.709 101.262C501.709 100.613 503.556 99.8312 505.82 99.5316Z" fill="#60629A"/>
<path d="M415.818 142.05H502.976C504.806 142.05 506.287 143.531 506.287 145.362V200.711C506.287 202.541 504.806 204.022 502.976 204.022H415.818C413.987 204.022 412.506 202.541 412.506 200.711V145.362C412.506 143.531 413.987 142.05 415.818 142.05Z" fill="#E7EAF3"/>
<path fill-rule="evenodd" clip-rule="evenodd" d="M459.389 191.691C469.657 191.691 478.045 183.321 478.045 173.036C478.045 162.752 469.674 154.381 459.389 154.381C449.104 154.381 440.732 162.752 440.732 173.036C440.732 183.321 449.104 191.691 459.389 191.691Z" fill="white"/>
<path fill-rule="evenodd" clip-rule="evenodd" d="M459.389 160.322C463.999 160.322 467.727 164.05 467.727 168.66C467.727 173.269 463.999 176.997 459.389 176.997C454.779 176.997 451.051 173.269 451.051 168.66C451.051 164.05 454.779 160.322 459.389 160.322ZM471.788 186.965C468.493 189.894 464.149 191.674 459.389 191.674C454.629 191.674 450.285 189.894 446.99 186.965C449.187 182.322 453.914 179.11 459.389 179.11C464.865 179.11 469.591 182.322 471.788 186.965Z" fill="#E7EAF3"/>
<path d="M604.517 96.001H549.114C547.946 96.001 547 96.9472 547 98.1144V133.311C547 134.478 547.946 135.424 549.114 135.424H604.517C605.684 135.424 606.631 134.478 606.631 133.311V98.1144C606.631 96.9472 605.684 96.001 604.517 96.001Z" fill="#2ACB95"/>
<path fill-rule="evenodd" clip-rule="evenodd" d="M585.973 111.081C585.973 111.081 587.87 119.801 584.492 126.357C584.492 126.357 572.442 128.238 570.545 118.719C570.545 118.719 567.15 118.32 566.834 115.574C566.518 112.828 569.513 112.528 570.462 113.993L570.878 116.04L572.226 115.873L573.175 111.779C573.175 111.779 579.099 113.494 585.99 111.081H585.973Z" fill="#EBB39D"/>
<path fill-rule="evenodd" clip-rule="evenodd" d="M570.245 118.669C568.198 118.386 566.317 116.606 566.866 114.426C568.481 113.194 569.379 114.892 569.379 114.892C567.831 115.474 568.797 117.205 570.178 117.105L570.245 118.669Z" fill="#D77F7F"/>
<path fill-rule="evenodd" clip-rule="evenodd" d="M585.972 110.981C581.745 113.86 575.288 112.845 573.84 112.429L572.209 115.774L573.158 111.68C573.158 111.68 579.149 113.461 585.972 110.981Z" fill="#D77F7F"/>
<path fill-rule="evenodd" clip-rule="evenodd" d="M589.933 110.348C592.246 106.571 590.166 100.879 586.571 103.792C581.794 97.1851 572.358 99.8644 571.626 104.258C571.542 104.258 571.476 104.224 571.393 104.224C571.326 103.243 571.476 100.863 574.055 99.7146L574.022 99.6147C571.409 100.78 571.243 103.193 571.293 104.208C570.893 103.892 569.961 103.392 568.547 103.758L568.58 103.858C569.795 103.542 570.644 103.892 571.093 104.191C566.084 103.659 566.982 108.984 568.297 113.161C569.096 112.994 570.011 113.294 570.444 113.993L570.86 116.04L572.208 115.873L573.157 111.68C573.157 111.68 579.148 113.46 585.972 110.981C585.972 110.981 586.138 111.763 586.288 113.044C586.288 113.044 591.297 113.36 592.379 107.802C592.379 107.802 591.514 109.55 589.949 110.365L589.933 110.348Z" fill="#3A3C6C"/>
<path fill-rule="evenodd" clip-rule="evenodd" d="M570.145 118.536C570.794 120.366 571.809 124.294 571.892 130.9C571.892 130.9 575.237 132.098 580.679 130.9C580.679 130.9 581.046 128.92 581.062 126.374C577.351 126.191 571.776 124.826 570.544 118.602C570.544 118.602 570.394 118.586 570.145 118.536Z" fill="#EBB39D"/>
<path fill-rule="evenodd" clip-rule="evenodd" d="M570.479 119.634C570.761 120.633 571.078 121.947 571.327 123.645C572.459 126.174 575.055 128.787 580.897 129.22C580.98 128.454 581.047 127.472 581.063 126.374C577.352 126.191 571.777 124.826 570.545 118.603C570.545 118.603 570.495 119.002 570.495 119.634H570.479Z" fill="#D77F7F"/>
<path fill-rule="evenodd" clip-rule="evenodd" d="M574.456 119.085C574.456 119.085 583.376 116.572 586.738 119.385C586.738 119.385 586.189 123.761 584.874 126.241C584.874 126.241 579.615 129.087 573.441 123.279L570.229 118.636L570.461 118.519L573.59 122.979C573.956 121.864 574.223 120.4 574.239 119.235L570.511 114.692L570.695 114.525L574.472 119.085H574.456Z" fill="white"/>
<path fill-rule="evenodd" clip-rule="evenodd" d="M577.702 114.775C578.035 114.709 578.384 114.925 578.451 115.258L578.551 115.74C578.617 116.09 578.401 116.423 578.068 116.506C577.718 116.572 577.386 116.356 577.319 116.023L577.219 115.524C577.152 115.175 577.369 114.842 577.702 114.775Z" fill="#3A3C6C"/>
<path fill-rule="evenodd" clip-rule="evenodd" d="M578.883 115.058C578.883 115.058 578.051 114.775 576.387 115.241C576.387 115.241 577.801 114.093 578.883 115.058Z" fill="#3A3C6C"/>
<path fill-rule="evenodd" clip-rule="evenodd" d="M584.54 114.592C584.889 114.592 585.172 114.891 585.172 115.241V115.74C585.172 116.09 584.873 116.372 584.523 116.372C584.174 116.372 583.891 116.073 583.891 115.723V115.224C583.891 114.875 584.19 114.592 584.54 114.592Z" fill="#3A3C6C"/>
<path fill-rule="evenodd" clip-rule="evenodd" d="M585.606 114.908C585.606 114.908 584.774 114.625 583.109 115.108C583.109 115.108 584.524 113.96 585.606 114.908Z" fill="#3A3C6C"/>
<path fill-rule="evenodd" clip-rule="evenodd" d="M583.193 118.519C583.193 118.519 582.76 119.667 580.68 119.667C580.68 119.667 583.093 121.165 583.193 118.519Z" fill="#CFE5FD"/>
<path fill-rule="evenodd" clip-rule="evenodd" d="M571.892 130.9L560.908 135.893H592.263C592.196 135.627 592.13 135.377 592.047 135.111L580.663 130.9C575.238 132.099 571.876 130.9 571.876 130.9H571.892Z" fill="white"/>
<path fill-rule="evenodd" clip-rule="evenodd" d="M569.53 131.966L569.33 132.065C569.546 132.199 569.796 132.315 570.046 132.448C571.66 133.197 573.89 133.663 576.353 133.663C578.816 133.663 581.047 133.197 582.661 132.448C582.977 132.298 583.277 132.132 583.543 131.966L583.327 131.882C583.094 132.015 582.844 132.149 582.578 132.282C580.98 133.014 578.783 133.48 576.353 133.48C573.923 133.48 571.71 133.031 570.129 132.282C569.913 132.182 569.713 132.082 569.53 131.982V131.966Z" fill="#3A3C6C"/>
<path d="M516.388 142.05H603.546C605.377 142.05 606.858 143.531 606.858 145.362V200.711C606.858 202.541 605.377 204.022 603.546 204.022H516.388C514.557 204.022 513.076 202.541 513.076 200.711V145.362C513.076 143.531 514.557 142.05 516.388 142.05Z" fill="#E7EAF3"/>
<path fill-rule="evenodd" clip-rule="evenodd" d="M559.975 191.691C570.243 191.691 578.631 183.321 578.631 173.036C578.631 162.752 570.26 154.381 559.975 154.381C549.69 154.381 541.318 162.752 541.318 173.036C541.318 183.321 549.69 191.691 559.975 191.691Z" fill="white"/>
<path fill-rule="evenodd" clip-rule="evenodd" d="M559.975 160.805C564.585 160.805 568.313 164.532 568.313 169.142C568.313 173.752 564.585 177.479 559.975 177.479C555.365 177.479 551.637 173.752 551.637 169.142C551.637 164.532 555.365 160.805 559.975 160.805ZM572.374 187.447C569.079 190.376 564.735 192.157 559.975 192.157C555.215 192.157 550.871 190.376 547.576 187.447C549.773 182.804 554.5 179.593 559.975 179.593C565.45 179.593 570.177 182.804 572.374 187.447Z" fill="#E7EAF3"/>
<path d="M323.484 96.4697H400.174C402.72 96.4697 404.767 98.5332 404.767 101.063V240.084C404.767 242.63 402.703 244.677 400.174 244.677H323.484C320.938 244.677 318.891 242.613 318.891 240.084V101.079C318.891 98.5332 320.954 96.4864 323.484 96.4864V96.4697Z" fill="#E7EAF3"/>
<path fill-rule="evenodd" clip-rule="evenodd" d="M340.46 131.583C347.899 131.583 353.957 125.526 353.957 118.087C353.957 110.648 347.899 104.591 340.46 104.591C333.021 104.591 326.963 110.648 326.963 118.087C326.963 125.526 333.021 131.583 340.46 131.583Z" fill="#3A3C6C"/>
<path fill-rule="evenodd" clip-rule="evenodd" d="M340.461 108.901C343.789 108.901 346.485 111.597 346.485 114.925C346.485 118.253 343.789 120.949 340.461 120.949C337.132 120.949 334.419 118.253 334.419 114.925C334.419 111.597 337.115 108.901 340.461 108.901ZM349.431 128.188C347.051 130.318 343.906 131.6 340.461 131.6C337.016 131.6 333.87 130.302 331.49 128.188C333.071 124.827 336.5 122.497 340.461 122.497C344.422 122.497 347.85 124.827 349.431 128.188Z" fill="#E7EAF3"/>
<path d="M381.352 109.533H358.285V113.178H381.352V109.533Z" fill="#3A3C6C"/>
<path d="M390.872 116.439H358.285V120.084H390.872V116.439Z" fill="#3A3C6C"/>
<path d="M330.174 165.548C333.455 165.548 336.115 162.888 336.115 159.607C336.115 156.326 333.455 153.666 330.174 153.666C326.892 153.666 324.232 156.326 324.232 159.607C324.232 162.888 326.892 165.548 330.174 165.548Z" fill="#6F89DB"/>
<path fill-rule="evenodd" clip-rule="evenodd" d="M330.174 168.577C333.452 168.577 336.115 171.239 336.115 174.518C336.115 177.796 333.452 180.459 330.174 180.459C326.895 180.459 324.232 177.796 324.232 174.518C324.232 171.239 326.895 168.577 330.174 168.577Z" fill="#FFC65C"/>
<path fill-rule="evenodd" clip-rule="evenodd" d="M329.945 183.033C333.224 183.033 335.887 185.696 335.887 188.974C335.887 192.252 333.224 194.915 329.945 194.915C326.667 194.915 324.004 192.252 324.004 188.974C324.004 185.696 326.667 183.033 329.945 183.033Z" fill="#2ACB95"/>
<path d="M354.006 157.327H340.658V158.908H354.006V157.327Z" fill="#3A3C6C"/>
<path d="M347.032 160.323H340.658V161.904H347.032V160.323Z" fill="#3A3C6C"/>
<path d="M354.006 171.456H340.658V173.036H354.006V171.456Z" fill="#3A3C6C"/>
<path d="M349.612 174.451H340.658V176.032H349.612V174.451Z" fill="#3A3C6C"/>
<path fill-rule="evenodd" clip-rule="evenodd" d="M330.174 200.195C333.452 200.195 336.115 202.858 336.115 206.136C336.115 209.415 333.452 212.077 330.174 212.077C326.895 212.077 324.232 209.415 324.232 206.136C324.232 202.858 326.895 200.195 330.174 200.195Z" fill="#3A3C6C"/>
<path fill-rule="evenodd" clip-rule="evenodd" d="M330.174 215.123C333.452 215.123 336.115 217.785 336.115 221.063C336.115 224.342 333.452 227.004 330.174 227.004C326.895 227.004 324.232 224.342 324.232 221.063C324.232 217.785 326.895 215.123 330.174 215.123Z" fill="white"/>
<path d="M354.006 186.15H340.658V187.731H354.006V186.15Z" fill="#3A3C6C"/>
<path d="M344.769 189.146H340.658V190.726H344.769V189.146Z" fill="#3A3C6C"/>
<path d="M347.332 200.295H340.658V201.876H347.332V200.295Z" fill="#3A3C6C"/>
<path d="M349.612 203.274H340.658V204.855H349.612V203.274Z" fill="#3A3C6C"/>
<path d="M395.93 139.987H325.016V140.553H395.93V139.987Z" fill="white"/>
<path d="M393.701 155.18H393.684C392.673 155.18 391.854 156 391.854 157.011V164.466C391.854 165.477 392.673 166.297 393.684 166.297H393.701C394.712 166.297 395.532 165.477 395.532 164.466V157.011C395.532 156 394.712 155.18 393.701 155.18Z" fill="white"/>
<path d="M441.529 283.068H324.881V294.068H441.529V283.068Z" fill="white"/>
<path d="M647.034 294.068H197.481C194.439 294.068 191.973 296.531 191.973 299.568C191.973 302.606 194.439 305.068 197.481 305.068H647.034C650.076 305.068 652.542 302.606 652.542 299.568C652.542 296.531 650.076 294.068 647.034 294.068Z" fill="#1C8A66"/>
<path d="M647.051 305.068H460.07V548.231H647.051V305.068Z" fill="#D6DAE6"/>
<path fill-rule="evenodd" clip-rule="evenodd" d="M647.051 305.068H460.07V311.092L647.051 319.014V305.068Z" fill="#B3BCD3"/>
<path fill-rule="evenodd" clip-rule="evenodd" d="M460.07 427.831H647.051V429.862H572.891V434.271C572.891 437.816 569.995 440.712 566.45 440.712H540.704C537.159 440.712 534.263 437.816 534.263 434.271V429.862H460.104V427.831H460.07ZM572.874 501.968V506.378C572.874 509.923 569.979 512.818 566.434 512.818H540.688C537.143 512.818 534.247 509.923 534.247 506.378V501.968H460.087V499.921H647.068V501.968H572.908H572.874ZM572.874 357.772V362.181C572.874 365.726 569.979 368.622 566.434 368.622H540.688C537.143 368.622 534.247 365.726 534.247 362.181V357.772H460.087V355.725H647.068V357.772H572.908H572.874Z" fill="#B3BCD3"/>
<path fill-rule="evenodd" clip-rule="evenodd" d="M538.141 294.068H631.89V291.539H559.028C556.781 291.539 554.934 289.692 554.934 287.445C554.934 285.198 556.781 283.351 559.028 283.351H631.89V280.822H538.141C534.497 280.822 531.518 283.801 531.518 287.445C531.518 291.089 534.497 294.068 538.141 294.068Z" fill="#3A3C6C"/>
<path fill-rule="evenodd" clip-rule="evenodd" d="M559.028 291.522H628.611V283.351H559.028C556.781 283.351 554.934 285.198 554.934 287.445C554.934 289.691 556.781 291.539 559.028 291.539V291.522Z" fill="white"/>
<path fill-rule="evenodd" clip-rule="evenodd" d="M543.866 280.822H637.631V278.292H564.753C562.506 278.292 560.658 276.445 560.658 274.198C560.658 271.952 562.506 270.105 564.753 270.105H637.631V267.575H543.866C540.221 267.575 537.242 270.554 537.242 274.198C537.242 277.843 540.221 280.822 543.866 280.822Z" fill="#1C8A66"/>
<path fill-rule="evenodd" clip-rule="evenodd" d="M564.752 278.275H634.335V270.104H564.752C562.506 270.104 560.658 271.952 560.658 274.198C560.658 276.445 562.506 278.292 564.752 278.292V278.275Z" fill="white"/>
<path fill-rule="evenodd" clip-rule="evenodd" d="M567.781 273.533H576.901V288.21L572.225 285.431L567.781 288.21V273.533Z" fill="#CF4970"/>
<path fill-rule="evenodd" clip-rule="evenodd" d="M289.215 74.586C289.448 79.5285 289.631 86.8007 289.232 94.8218C289.232 94.8218 294.258 92.0427 294.924 96.7023C295.589 101.378 291.529 104.74 288.333 105.672C286.968 118.17 284.039 129.502 277.515 137.141C277.515 137.141 265.799 139.287 257.095 138.289L257.012 161.786L214.223 160.771C214.223 160.771 214.989 149.422 215.288 136.591C213.341 135.343 212.259 132.93 213.008 128.604C213.008 128.604 212.908 131.116 215.355 133.163C215.388 131.516 215.405 129.852 215.405 128.204C205.952 83.8885 168.472 46.7618 212.892 44.7648C206.351 24.4125 252.751 -1.14846 278.847 35.6953C274.337 18.405 315.877 37.7589 289.215 74.6026V74.586Z" fill="white"/>
<path fill-rule="evenodd" clip-rule="evenodd" d="M287.019 69.8599C287.019 69.8599 288.35 82.0413 287.784 96.6523C287.784 96.6523 292.777 93.8732 293.493 98.5328C294.225 103.209 290.197 106.571 287.002 107.502C285.787 119.983 282.991 131.333 276.567 138.971C276.567 138.971 264.867 141.101 256.163 140.119L256.346 163.617L213.541 162.602C213.541 162.602 214.473 145.844 214.34 130.035C223.277 130.035 232.197 130.035 241.135 130.035L243.248 105.672C243.248 105.672 230.816 109.899 228.586 96.9685C226.356 84.0382 238.289 74.6026 241.767 82.0579L244.996 88.7644L248.174 88.4482L252.335 75.0852C252.335 75.0852 273.971 75.3348 287.019 69.8599Z" fill="#EBB39D"/>
<path fill-rule="evenodd" clip-rule="evenodd" d="M287.018 69.8599C287.018 69.8599 287.134 70.9249 287.284 72.7887C280.377 76.2002 269.393 79.4286 254.881 76.8991L248.174 88.4482L252.335 75.0852C252.335 75.0852 273.97 75.3348 287.018 69.8599Z" fill="#DC8C8C"/>
<path fill-rule="evenodd" clip-rule="evenodd" d="M243.266 105.656H243.216C242.367 105.938 230.75 109.416 228.604 96.9521C227.655 91.4938 229.236 86.6678 231.633 83.456C237.541 81.7586 242.117 94.2396 242.117 94.2396C242.117 94.2396 236.742 94.7055 237.724 98.5663C238.706 102.427 243.099 101.978 243.099 101.978L243.266 105.656Z" fill="#DC8C8C"/>
<path fill-rule="evenodd" clip-rule="evenodd" d="M256.18 140.103L256.247 149.205C252.169 149.372 246.577 150.404 241.019 151.702L214.041 151.369C214.241 145.311 214.424 137.557 214.357 130.035H241.152C246.328 136.874 256.18 140.119 256.18 140.119V140.103Z" fill="#DC8C8C"/>
<path fill-rule="evenodd" clip-rule="evenodd" d="M287.534 76.4166C313.763 39.5728 271.99 20.219 276.717 37.5093C250.188 0.665504 204.088 26.2265 210.878 46.5788C166.476 48.5757 204.388 85.7024 214.357 130.018C214.357 137.623 240.336 136.458 241.151 130.018L243.265 105.655C243.265 105.655 230.833 109.882 228.603 96.9519C226.373 84.0217 238.305 74.5861 241.784 82.0414L245.012 88.7478L248.191 88.4316L252.352 75.0687C252.352 75.0687 273.987 75.3183 287.035 69.8433C287.035 69.8433 287.301 72.3229 287.551 76.4L287.534 76.4166ZM211.977 130.418C211.977 130.418 211.71 139.737 229.801 137.107C229.801 137.107 209.48 145.761 211.977 130.418Z" fill="#3A3C6C"/>
<path fill-rule="evenodd" clip-rule="evenodd" d="M244.829 21.6504C251.12 21.6504 256.213 23.1481 256.213 24.9953C256.213 26.8425 251.12 28.3402 244.829 28.3402C238.538 28.3402 233.446 26.8425 233.446 24.9953C233.446 23.1481 238.538 21.6504 244.829 21.6504ZM200.876 49.2749C204.903 49.0419 208.132 50.1902 208.099 51.821C208.049 53.4519 204.737 54.9496 200.71 55.1826C196.682 55.4155 193.453 54.2673 193.487 52.6365C193.537 51.0056 196.848 49.4913 200.876 49.2749Z" fill="#60629A"/>
<path fill-rule="evenodd" clip-rule="evenodd" d="M180.805 322.891L174.597 327.617C174.597 327.617 154.959 399.174 223.044 402.669L245.328 518.808C243.215 519.041 241.567 520.839 241.567 523.002C241.567 525.332 243.465 527.229 245.794 527.229H282.741V526.713C284.056 525.997 284.938 524.6 284.938 523.002C284.938 521.371 284.006 519.94 282.641 519.241L280.761 369.12L260.423 372.798L233.529 326.369L180.821 322.891H180.805Z" fill="#232446"/>
<path fill-rule="evenodd" clip-rule="evenodd" d="M278.331 527.229C280.944 530.674 285.887 538.345 286.885 548.114H246.111C246.111 548.114 244.413 537.147 248.591 527.229H278.331Z" fill="#232446"/>
<path fill-rule="evenodd" clip-rule="evenodd" d="M300.881 327.6L395.179 349.234C397.042 349.666 399.789 356.223 403.067 366.74C416.148 408.593 424.803 453.541 437.085 517.46C445.007 519.99 439.465 528.227 439.465 528.227L439.148 528.177V528.227H401.32H400.687L400.654 528.161C387.207 526.547 396.41 518.342 396.41 518.342L343.486 395.996C300.615 399.091 208.631 407.944 209.629 336.786C259.075 343.909 300.898 327.617 300.898 327.617L300.881 327.6Z" fill="#3A3C6C"/>
<path fill-rule="evenodd" clip-rule="evenodd" d="M300.881 327.6L327.992 333.824C318.073 339.232 300.198 347.803 274.768 355.707C283.273 360.633 307.371 369.736 367.635 367.805H367.934L411.272 514.066L410.506 514.282L367.352 368.588C305.94 370.518 281.941 360.899 273.786 355.99C258.009 360.849 239.353 365.426 217.9 368.837C212.508 360.567 209.446 350.049 209.629 336.753C259.074 343.875 300.897 327.583 300.897 327.583L300.881 327.6Z" fill="#232446"/>
<path fill-rule="evenodd" clip-rule="evenodd" d="M453.978 548.23H399.54C399.54 548.23 397.093 541.291 400.688 528.228H439.465C439.465 528.228 466.194 537.031 466.443 548.23H453.994H453.978Z" fill="#3A3C6C"/>
<path fill-rule="evenodd" clip-rule="evenodd" d="M186.181 260.968C186.181 260.968 205.02 173.069 172.634 171.255C140.996 169.475 144.191 268.291 158.271 290.157C172.334 312.024 247.825 277.726 247.825 277.726C247.825 277.726 251.953 265.461 238.705 257.973L186.181 260.968Z" fill="#DADEE9"/>
<path fill-rule="evenodd" clip-rule="evenodd" d="M262.155 153.649C273.406 156.345 292.811 162.252 302.364 172.487C316.294 187.397 295.907 280.871 300.866 327.6C295.391 339.532 224.094 363.212 174.582 327.6C174.582 327.6 160.419 243.578 167.375 173.984C167.375 173.984 180.606 165.78 194.12 159.107C198.114 146.659 213.559 151.352 213.559 151.352C224.227 153.083 263.004 145.494 262.455 151.369C262.472 151.935 262.372 152.7 262.155 153.649Z" fill="white"/>
<path fill-rule="evenodd" clip-rule="evenodd" d="M292.861 170.806C296.506 172.869 299.801 175.199 302.364 177.829C313.498 189.244 302.68 248.787 300.45 295.016C300.084 294.733 299.718 294.434 299.369 294.118C279.697 275.812 266.133 170.307 292.528 170.789C292.645 170.789 292.745 170.789 292.845 170.789L292.861 170.806Z" fill="#E7EAF3"/>
<path fill-rule="evenodd" clip-rule="evenodd" d="M211.761 150.936C212.877 151.152 213.559 151.352 213.559 151.352H214.042C228.437 151.535 246.811 148.69 258.211 149.189C266.516 156.295 208.283 179.06 206.12 154.913C205.77 150.969 209.298 150.67 211.761 150.936ZM260.242 156.91C260.242 156.91 258.078 167.894 244.947 173.185C244.947 173.185 264.552 172.919 260.242 156.91ZM196.35 164.083C189.627 190.442 213.259 182.305 213.259 182.305C196.617 182.954 196.35 164.083 196.35 164.083Z" fill="#DADEE9"/>
<path fill-rule="evenodd" clip-rule="evenodd" d="M292.545 165.131C266.1 164.616 285.106 289.359 313.498 294.068C346.784 299.576 360.68 259.238 366.056 220.38L345.652 212.559C345.652 212.559 326.896 235.091 323.484 244.677C317.592 221.246 318.974 165.631 292.545 165.115V165.131Z" fill="white"/>
<path fill-rule="evenodd" clip-rule="evenodd" d="M329.159 234.426C327.228 237.438 325.348 240.666 323.783 243.828C326.829 252.665 326.929 267.109 326.929 267.109C333.736 251.666 331.372 239.901 329.175 234.426H329.159Z" fill="#E7EAF3"/>
<path fill-rule="evenodd" clip-rule="evenodd" d="M326.247 272.335C326.247 272.335 327.878 258.722 323.285 244.76C322.07 241.082 321.088 234.259 319.907 226.122C316.578 203.24 311.735 169.958 296.457 167.694L296.524 167.295C312.101 169.608 316.961 203.074 320.306 226.072C321.488 234.193 322.47 240.999 323.668 244.644C328.278 258.689 326.647 272.351 326.647 272.385L326.247 272.351V272.335Z" fill="#3A3C6C"/>
<path fill-rule="evenodd" clip-rule="evenodd" d="M366.039 220.381L378.271 199.063L377.689 192.14C374.71 189.128 363.592 181.956 363.592 181.956C363.592 181.956 363.742 179.01 364.658 173.436C365.556 167.861 358.233 166.879 357.401 169.991L345.951 212.543L366.056 220.364L366.039 220.381Z" fill="white"/>
<path fill-rule="evenodd" clip-rule="evenodd" d="M366.04 220.381L377.457 199.063L376.608 192.14C373.512 189.128 362.112 181.956 362.112 181.956C362.112 181.956 362.145 179.01 362.844 173.436C363.527 167.861 356.171 166.879 355.455 169.991L345.652 212.543L366.056 220.364L366.04 220.381Z" fill="#EBB39D"/>
<path fill-rule="evenodd" clip-rule="evenodd" d="M366.04 220.381L369.901 213.175C357.335 215.006 350.063 211.761 346.435 209.165L345.652 212.559L366.056 220.381H366.04Z" fill="#DC8C8C"/>
<path fill-rule="evenodd" clip-rule="evenodd" d="M152.146 399.041H289.565V410.058C289.565 416.115 284.606 421.057 278.564 421.057H163.147C157.089 421.057 152.146 416.098 152.146 410.058V399.041Z" fill="#3A3C6C"/>
<path fill-rule="evenodd" clip-rule="evenodd" d="M114.318 237.438H223.411C230.534 237.438 236.376 243.279 236.376 250.401V252.714L249.307 370.901C249.307 370.901 246.212 393.749 261.706 393.749C275.22 393.749 316.044 392.867 334.168 392.451C336.581 392.401 338.678 393.217 340.393 394.914C342.123 396.595 342.989 398.675 342.989 401.088V407.461L129.646 408.959C129.646 408.959 114.668 407.145 114.135 384.929L101.32 252.731V250.418C101.32 243.295 107.162 237.454 114.285 237.454L114.318 237.438Z" fill="#1C8A66"/>
<path fill-rule="evenodd" clip-rule="evenodd" d="M217.785 237.438L230.717 382.716C230.717 382.716 230.617 383.581 230.533 385.012C230.134 392.601 230.75 408.959 243.298 408.959C280.977 408.959 305.342 407.461 343.021 407.461V400.921C343.021 398.525 342.156 396.478 340.458 394.797C338.761 393.117 336.697 392.268 334.301 392.301C307.872 392.534 290.231 393.766 261.722 393.766C253.717 393.766 249.972 387.176 249.323 379.903C248.757 375.111 249.323 370.917 249.323 370.917L246.86 347.869H328.276C330.739 347.869 331.721 345.989 331.721 343.659C331.721 334.14 323.966 326.385 314.446 326.385H244.547L236.392 250.418C235.626 243.329 230.55 237.454 223.427 237.454H217.785V237.438Z" fill="#15664B"/>
<path fill-rule="evenodd" clip-rule="evenodd" d="M214.824 414.584H226.906V537.829H254.284C258.261 537.829 261.523 541.074 261.523 545.068V552.307H180.207V545.068C180.207 541.091 183.469 537.829 187.447 537.829H214.824V414.584Z" fill="#3A3C6C"/>
<path fill-rule="evenodd" clip-rule="evenodd" d="M119.829 189.711C120.911 189.711 121.793 188.829 121.793 187.747C121.793 186.665 120.911 185.783 119.829 185.783C118.747 185.783 117.865 186.665 117.865 187.747C117.865 188.829 118.747 189.711 119.829 189.711Z" fill="#1C8A66"/>
<path fill-rule="evenodd" clip-rule="evenodd" d="M14.5966 336.736C17.1929 336.736 19.3065 334.623 19.3065 332.027C19.3065 329.431 17.1929 327.317 14.5966 327.317C12.0003 327.317 9.88672 329.431 9.88672 332.027C9.88672 334.623 12.0003 336.736 14.5966 336.736Z" fill="#96C042"/>
<path fill-rule="evenodd" clip-rule="evenodd" d="M632.389 166.945C634.852 166.945 636.866 164.932 636.866 162.469C636.866 160.006 634.852 157.992 632.389 157.992C629.926 157.992 627.912 160.006 627.912 162.469C627.912 164.932 629.926 166.945 632.389 166.945Z" fill="#F8A300"/>
<path fill-rule="evenodd" clip-rule="evenodd" d="M400.939 326.252C402.387 326.252 403.569 325.071 403.569 323.64C403.569 322.208 402.387 321.027 400.939 321.027C399.491 321.027 398.326 322.208 398.326 323.64C398.326 325.071 399.508 326.252 400.939 326.252Z" fill="#1C8A66"/>
<path fill-rule="evenodd" clip-rule="evenodd" d="M649.682 207.8C650.697 207.8 651.513 206.984 651.513 205.969C651.513 204.954 650.681 204.139 649.682 204.139C648.684 204.139 647.852 204.971 647.852 205.969C647.852 206.968 648.684 207.8 649.682 207.8Z" fill="#F8A300"/>
</g>
<defs>
<clipPath id="clip0_2_34245">
<rect width="671" height="579" fill="white"/>
</clipPath>
</defs>
</svg>
